<svg width="21" height="20" viewBox="0 0 21 20" fill="none" xmlns="http://www.w3.org/2000/svg">
<path opacity="0.4" d="M15.0802 20H5.74107C3.02191 20 0.809326 17.8311 0.809326 15.1646V9.83544C0.809326 7.16894 3.02191 5 5.74107 5H15.0802C17.7994 5 20.012 7.16894 20.012 9.83544V15.1646C20.012 17.8311 17.7994 20 15.0802 20Z" />
<path d="M14.2059 8C13.7903 8 13.453 7.67634 13.453 7.27754V4.35689C13.453 2.75111 12.092 1.44491 10.4197 1.44491C9.64983 1.44491 8.84181 1.7416 8.26666 2.28778C7.6905 2.83588 7.37131 3.56508 7.3683 4.34341V7.27754C7.3683 7.67634 7.03104 8 6.61548 8C6.19993 8 5.86267 7.67634 5.86267 7.27754V4.35689C5.86769 3.17303 6.34548 2.08067 7.20669 1.26285C8.06691 0.443107 9.17907 0.0317881 10.4227 0C12.9221 0 14.9587 1.95449 14.9587 4.35689V7.27754C14.9587 7.67634 14.6214 8 14.2059 8Z" />
</svg>
