<svg width="21" height="19" viewBox="0 0 21 19" fill="none" xmlns="http://www.w3.org/2000/svg">
<path opacity="0.4" d="M10.3736 18.7345C8.06618 17.3956 5.92124 15.8168 3.97799 14.0271C2.60613 12.7492 1.55843 11.1889 0.91494 9.4654C-0.234827 6.10415 1.10357 2.26273 4.84032 1.12231C6.81264 0.540399 8.95771 0.897621 10.6071 2.08267C12.2571 0.898946 14.4015 0.54184 16.3739 1.12231C20.1107 2.26273 21.458 6.10415 20.3083 9.4654C19.67 11.1873 18.6285 12.7475 17.2632 14.0271C15.3182 15.8149 13.1735 17.3935 10.8676 18.7345L10.6161 18.8889L10.3736 18.7345Z"/>
<path d="M10.611 18.8889L10.3736 18.7345C8.06334 17.3957 5.91541 15.817 3.96902 14.0271C2.59065 12.751 1.53671 11.1905 0.888001 9.46539C-0.252783 6.10414 1.08562 2.26272 4.82236 1.1223C6.79468 0.540389 8.96804 0.897885 10.611 2.09285V18.8889Z"/>
<path d="M16.8969 7.4942C16.6939 7.48192 16.5048 7.3866 16.374 7.23057C16.2432 7.07454 16.1821 6.8715 16.205 6.66903C16.227 6.00215 15.8231 5.39514 15.2002 5.15896C14.8053 5.05767 14.5661 4.65582 14.6649 4.25952C14.7587 3.8696 15.1473 3.62714 15.5379 3.71491C15.5873 3.7226 15.6347 3.73938 15.6779 3.76442C16.9268 4.21593 17.7354 5.43112 17.6711 6.7598C17.669 6.96118 17.5854 7.1531 17.4395 7.29157C17.2935 7.43003 17.0977 7.50317 16.8969 7.4942Z"/>
</svg>
