<svg width="20" height="20" viewBox="0 0 20 20" fill="none" xmlns="http://www.w3.org/2000/svg">
<path d="M6.82794 18.5204V15.6084C6.82793 14.8705 7.46662 14.271 8.25774 14.2664H11.1626C11.9572 14.2664 12.6014 14.8672 12.6014 15.6084V18.5119C12.6014 19.152 13.155 19.6721 13.8412 19.6767H15.823C16.7485 19.679 17.637 19.3376 18.2924 18.7279C18.9477 18.1183 19.316 17.2904 19.316 16.4271V8.15544C19.316 7.45807 18.9846 6.79659 18.4111 6.34917L11.6784 1.32707C10.5015 0.448652 8.82061 0.477029 7.67858 1.3946L1.09067 6.34917C0.490059 6.7834 0.131082 7.44685 0.113342 8.15544V16.4187C0.113342 18.2181 1.67723 19.6767 3.60638 19.6767H5.54294C5.87331 19.679 6.19097 19.5581 6.42543 19.341C6.65989 19.1239 6.79175 18.8285 6.79174 18.5204H6.82794Z"/>
</svg>
