<svg width="18" height="20" viewBox="0 0 18 20" fill="none" xmlns="http://www.w3.org/2000/svg">
<path d="M17.1484 9.64534C16.4101 8.79229 16.0746 8.05305 16.0746 6.79716V6.37013C16.0746 4.73354 15.6939 3.67907 14.8662 2.62459C13.5906 0.986993 11.443 0 9.34069 0H9.25129C7.19315 0 5.11291 0.941671 3.81514 2.5128C2.94226 3.58842 2.51737 4.68822 2.51737 6.37013V6.79716C2.51737 8.05305 2.20398 8.79229 1.4436 9.64534C0.884117 10.2738 0.705322 11.0815 0.705322 11.9557C0.705322 12.8309 0.995612 13.6598 1.5782 14.3336C2.33858 15.1413 3.41235 15.6569 4.50922 15.7466C6.09728 15.9258 7.68533 15.9933 9.29649 15.9933C10.9066 15.9933 12.4947 15.8805 14.0838 15.7466C15.1796 15.6569 16.2534 15.1413 17.0138 14.3336C17.5954 13.6598 17.8867 12.8309 17.8867 11.9557C17.8867 11.0815 17.7079 10.2738 17.1484 9.64534Z" />
<path opacity="0.4" d="M11.3261 17.2284C10.8209 17.1216 7.74219 17.1216 7.23695 17.2284C6.80503 17.3271 6.33795 17.5567 6.33795 18.0602C6.36306 18.5406 6.64733 18.9647 7.04108 19.2336L7.04007 19.2346C7.54933 19.6273 8.14699 19.8771 8.77277 19.9668C9.10625 20.0121 9.44576 20.0101 9.79129 19.9668C10.4161 19.8771 11.0137 19.6273 11.523 19.2346L11.522 19.2336C11.9157 18.9647 12.2 18.5406 12.2251 18.0602C12.2251 17.5567 11.758 17.3271 11.3261 17.2284Z" />
</svg>
